Coordinates
nRows=217
nColumns=2
inDegrees=yes
endheader
time	ankle_angle_r	
2.96069	 -0.393210	
2.99395	 -0.442505	
3.02722	 -0.408275	
3.06048	 -0.400537	
3.09375	 -0.431152	
3.12702	 -0.396729	
3.16028	 -0.416086	
3.19355	 -0.407792	
3.22681	 -0.390054	
3.26008	 -0.444597	
3.29335	 -0.427246	
3.32661	 -0.392146	
3.35988	 -0.433147	
3.39315	 -0.452988	
3.42641	 -0.448019	
3.45968	 -0.422277	
3.49294	 -0.452698	
3.52621	 -0.427246	
3.55948	 -0.473022	
3.59274	 -0.456955	
3.62601	 -0.427246	
3.65927	 -0.457764	
3.69254	 -0.436859	
3.72581	 -0.436762	
3.75907	 -0.446085	
3.79234	 -0.485732	
3.8256	 -0.418020	
3.85887	 -0.479152	
3.89214	 -0.473022	
3.9254	 -0.418310	
3.95867	 -0.457764	
3.99194	 -0.464280	
4.0252	 -0.455730	
4.05847	 -0.466313	
4.09173	 -0.450958	
4.125	 -0.437055	
4.15827	 -0.459024	
4.19153	 -0.473022	
4.2248	 -0.412860	
4.25806	 -0.434536	
4.29133	 -0.465636	
4.3246	 -0.435022	
4.35786	 -0.473022	
4.39113	 -0.495958	
4.4244	 -0.427533	
4.45766	 -0.465633	
4.49093	 -0.466404	
4.52419	 -0.450568	
4.55746	 -0.449604	
4.59073	 -0.480025	
4.62399	 -0.411987	
4.65726	 -0.462932	
4.69052	 -0.435793	
4.72379	 -0.425219	
4.75706	 -0.464283	
4.79032	 -0.411987	
4.82359	 -0.427246	
4.85685	 -0.466794	
4.89012	 -0.418120	
4.92339	 -0.424398	
4.95665	 -0.470465	
4.98992	 -0.421404	
5.02319	 -0.421501	
5.05645	 -0.452115	
5.08972	 -0.411987	
5.12298	 -0.463219	
5.15625	 -0.467664	
5.18952	 -0.411987	
5.22278	 -0.427246	
5.25605	 -0.406919	
5.28931	 -0.432561	
5.32258	 -0.427246	
5.35585	 -0.426323	
5.38911	 -0.382683	
5.42238	 -0.422661	
5.45565	 -0.468534	
5.48891	 -0.396729	
5.52218	 -0.442505	
5.55544	 -0.438306	
5.58871	 -0.377368	
5.62198	 -0.396729	
5.65524	 -0.415896	
5.68851	 -0.400540	
5.72177	 -0.400842	
5.75504	 -0.430864	
5.78831	 -0.396729	
5.82157	 -0.400154	
5.85484	 -0.430574	
5.8881	 -0.354184	
5.92137	 -0.399863	
5.95464	 -0.430284	
5.9879	 -0.467139	
6.02117	 -0.402418	
6.05444	 -0.427246	
6.0877	 -0.394077	
6.12097	 -0.358617	
6.15423	 -0.440047	
6.1875	 -0.409626	
6.22077	 -0.429511	
6.25403	 -0.431582	
6.2873	 -0.398800	
6.32056	 -0.431196	
6.35383	 -0.442505	
6.3871	 -0.411987	
6.42036	 -0.417041	
6.45363	 -0.413575	
6.4869	 -0.427246	
6.52016	 -0.445294	
6.55343	 -0.442505	
6.58669	 -0.397930	
6.61996	 -0.457764	
6.65323	 -0.469999	
6.68649	 -0.426335	
6.71976	 -0.457764	
6.75302	 -0.473022	
6.78629	 -0.442505	
6.81956	 -0.427771	
6.85282	 -0.473022	
6.88609	 -0.427246	
6.91935	 -0.457529	
6.95262	 -0.457764	
6.98589	 -0.457723	
7.01915	 -0.457819	
7.05242	 -0.457611	
7.08569	 -0.442256	
7.11895	 -0.427592	
7.15222	 -0.442505	
7.18548	 -0.457764	
7.21875	 -0.441869	
7.25202	 -0.486816	
7.28528	 -0.426417	
7.31855	 -0.473022	
7.35181	 -0.472000	
7.38508	 -0.413107	
7.41835	 -0.489497	
7.45161	 -0.500915	
7.48488	 -0.460582	
7.51815	 -0.471517	
7.55141	 -0.474625	
7.58468	 -0.430645	
7.61794	 -0.432634	
7.65121	 -0.471130	
7.68448	 -0.385448	
7.71774	 -0.455678	
7.75101	 -0.427246	
7.78427	 -0.424967	
7.81754	 -0.447257	
7.85081	 -0.449923	
7.88407	 -0.427246	
7.91734	 -0.429912	
7.9506	 -0.427246	
7.98387	 -0.414847	
8.01714	 -0.470066	
8.0504	 -0.418093	
8.08367	 -0.399878	
8.11694	 -0.430492	
8.1502	 -0.393386	
8.18347	 -0.418867	
8.21673	 -0.427246	
8.25	 -0.411987	
8.28327	 -0.408258	
8.31653	 -0.450158	
8.3498	 -0.411987	
8.38306	 -0.396729	
8.41633	 -0.473022	
8.4496	 -0.416200	
8.48286	 -0.385780	
8.51613	 -0.407581	
8.5494	 -0.381470	
8.58266	 -0.416587	
8.61593	 -0.453067	
8.64919	 -0.376676	
8.68246	 -0.376580	
8.71573	 -0.396729	
8.74899	 -0.381470	
8.78226	 -0.376571	
8.81552	 -0.432523	
8.84879	 -0.402102	
8.88206	 -0.406517	
8.91532	 -0.452197	
8.94859	 -0.411987	
8.98185	 -0.381470	
9.01512	 -0.446050	
9.04839	 -0.381470	
9.08165	 -0.381470	
9.11492	 -0.463911	
9.14819	 -0.439733	
9.18145	 -0.433586	
9.21472	 -0.466586	
9.24798	 -0.405454	
9.28125	 -0.442505	
9.31452	 -0.451037	
9.34778	 -0.383081	
9.38105	 -0.459182	
9.41431	 -0.450747	
9.44758	 -0.436422	
9.48085	 -0.420874	
9.51411	 -0.449812	
9.54738	 -0.411987	
9.58065	 -0.442247	
9.61391	 -0.450102	
9.64718	 -0.419552	
9.68044	 -0.450295	
9.71371	 -0.449876	
9.74698	 -0.419262	
9.78024	 -0.434424	
9.81351	 -0.434328	
9.84677	 -0.418972	
9.88004	 -0.474505	
9.91331	 -0.442505	
9.94657	 -0.440636	
9.97984	 -0.457764	
10.0131	 -0.470766	
10.0464	 -0.429695	
10.0796	 -0.448813	
10.1129	 -0.463975	
10.1462	 -0.424217	
